<mxfile host="app.diagrams.net" modified="2023-12-01T15:44:35.616Z" agent="Mozilla/5.0 (Macintosh; Intel Mac OS X 10_15_7) AppleWebKit/537.36 (KHTML, like Gecko) Chrome/119.0.0.0 Safari/537.36" version="22.1.5" etag="E1gch6uudiAd1E9Q8WiH" type="github">
  <diagram name="Page-1" id="8d1HvGFV2moTz9HdibuE">
    <mxGraphModel>
      <root>
        <mxCell id="0" />
        <mxCell id="1" parent="0" />
        <mxCell id="2" value="Game" style="swimlane;fontStyle=1;align=center;verticalAlign=top;childLayout=stackLayout;horizontal=1;startSize=25.7;horizontalStack=0;resizeParent=1;resizeParentMax=0;resizeLast=0;collapsible=0;marginBottom=0;" vertex="1" parent="1">
          <mxGeometry x="242" y="8" width="266" height="265" as="geometry" />
        </mxCell>
        <mxCell id="3" value="-dealer: Dealer" style="text;strokeColor=none;fillColor=none;align=left;verticalAlign=top;spacingLeft=4;spacingRight=4;overflow=hidden;rotatable=0;points=[[0,0.5],[1,0.5]];portConstraint=eastwest;" vertex="1" parent="2">
          <mxGeometry y="26" width="266" height="26" as="geometry" />
        </mxCell>
        <mxCell id="4" value="-players: Player[]" style="text;strokeColor=none;fillColor=none;align=left;verticalAlign=top;spacingLeft=4;spacingRight=4;overflow=hidden;rotatable=0;points=[[0,0.5],[1,0.5]];portConstraint=eastwest;" vertex="1" parent="2">
          <mxGeometry y="51" width="266" height="26" as="geometry" />
        </mxCell>
        <mxCell id="5" value="-deck: Deck" style="text;strokeColor=none;fillColor=none;align=left;verticalAlign=top;spacingLeft=4;spacingRight=4;overflow=hidden;rotatable=0;points=[[0,0.5],[1,0.5]];portConstraint=eastwest;" vertex="1" parent="2">
          <mxGeometry y="77" width="266" height="26" as="geometry" />
        </mxCell>
        <mxCell id="6" style="line;strokeWidth=1;fillColor=none;align=left;verticalAlign=middle;spacingTop=-1;spacingLeft=3;spacingRight=3;rotatable=0;labelPosition=right;points=[];portConstraint=eastwest;strokeColor=inherit;" vertex="1" parent="2">
          <mxGeometry y="103" width="266" height="8" as="geometry" />
        </mxCell>
        <mxCell id="7" value="+startGame(): void" style="text;strokeColor=none;fillColor=none;align=left;verticalAlign=top;spacingLeft=4;spacingRight=4;overflow=hidden;rotatable=0;points=[[0,0.5],[1,0.5]];portConstraint=eastwest;" vertex="1" parent="2">
          <mxGeometry y="111" width="266" height="26" as="geometry" />
        </mxCell>
        <mxCell id="8" value="+dealInitialCards(): void" style="text;strokeColor=none;fillColor=none;align=left;verticalAlign=top;spacingLeft=4;spacingRight=4;overflow=hidden;rotatable=0;points=[[0,0.5],[1,0.5]];portConstraint=eastwest;" vertex="1" parent="2">
          <mxGeometry y="137" width="266" height="26" as="geometry" />
        </mxCell>
        <mxCell id="9" value="+playerHit(player: Player): void" style="text;strokeColor=none;fillColor=none;align=left;verticalAlign=top;spacingLeft=4;spacingRight=4;overflow=hidden;rotatable=0;points=[[0,0.5],[1,0.5]];portConstraint=eastwest;" vertex="1" parent="2">
          <mxGeometry y="162" width="266" height="26" as="geometry" />
        </mxCell>
        <mxCell id="10" value="+playerStand(player: Player): void" style="text;strokeColor=none;fillColor=none;align=left;verticalAlign=top;spacingLeft=4;spacingRight=4;overflow=hidden;rotatable=0;points=[[0,0.5],[1,0.5]];portConstraint=eastwest;" vertex="1" parent="2">
          <mxGeometry y="188" width="266" height="26" as="geometry" />
        </mxCell>
        <mxCell id="11" value="+isGameOver(): boolean" style="text;strokeColor=none;fillColor=none;align=left;verticalAlign=top;spacingLeft=4;spacingRight=4;overflow=hidden;rotatable=0;points=[[0,0.5],[1,0.5]];portConstraint=eastwest;" vertex="1" parent="2">
          <mxGeometry y="214" width="266" height="26" as="geometry" />
        </mxCell>
        <mxCell id="12" value="+determineWinner(): Player[]" style="text;strokeColor=none;fillColor=none;align=left;verticalAlign=top;spacingLeft=4;spacingRight=4;overflow=hidden;rotatable=0;points=[[0,0.5],[1,0.5]];portConstraint=eastwest;" vertex="1" parent="2">
          <mxGeometry y="239" width="266" height="26" as="geometry" />
        </mxCell>
        <mxCell id="13" value="Dealer" style="swimlane;fontStyle=1;align=center;verticalAlign=top;childLayout=stackLayout;horizontal=1;startSize=28.4;horizontalStack=0;resizeParent=1;resizeParentMax=0;resizeLast=0;collapsible=0;marginBottom=0;" vertex="1" parent="1">
          <mxGeometry x="273" y="346" width="204" height="150" as="geometry" />
        </mxCell>
        <mxCell id="14" value="-hand: Card[]" style="text;strokeColor=none;fillColor=none;align=left;verticalAlign=top;spacingLeft=4;spacingRight=4;overflow=hidden;rotatable=0;points=[[0,0.5],[1,0.5]];portConstraint=eastwest;" vertex="1" parent="13">
          <mxGeometry y="28" width="204" height="28" as="geometry" />
        </mxCell>
        <mxCell id="15" style="line;strokeWidth=1;fillColor=none;align=left;verticalAlign=middle;spacingTop=-1;spacingLeft=3;spacingRight=3;rotatable=0;labelPosition=right;points=[];portConstraint=eastwest;strokeColor=inherit;" vertex="1" parent="13">
          <mxGeometry y="57" width="204" height="8" as="geometry" />
        </mxCell>
        <mxCell id="16" value="-dealCard(): Card" style="text;strokeColor=none;fillColor=none;align=left;verticalAlign=top;spacingLeft=4;spacingRight=4;overflow=hidden;rotatable=0;points=[[0,0.5],[1,0.5]];portConstraint=eastwest;" vertex="1" parent="13">
          <mxGeometry y="65" width="204" height="28" as="geometry" />
        </mxCell>
        <mxCell id="17" value="+getHandValue(): number" style="text;strokeColor=none;fillColor=none;align=left;verticalAlign=top;spacingLeft=4;spacingRight=4;overflow=hidden;rotatable=0;points=[[0,0.5],[1,0.5]];portConstraint=eastwest;" vertex="1" parent="13">
          <mxGeometry y="93" width="204" height="28" as="geometry" />
        </mxCell>
        <mxCell id="18" value="+isBust(): boolean" style="text;strokeColor=none;fillColor=none;align=left;verticalAlign=top;spacingLeft=4;spacingRight=4;overflow=hidden;rotatable=0;points=[[0,0.5],[1,0.5]];portConstraint=eastwest;" vertex="1" parent="13">
          <mxGeometry y="122" width="204" height="28" as="geometry" />
        </mxCell>
        <mxCell id="19" value="Player" style="swimlane;fontStyle=1;align=center;verticalAlign=top;childLayout=stackLayout;horizontal=1;startSize=26.857142857142858;horizontalStack=0;resizeParent=1;resizeParentMax=0;resizeLast=0;collapsible=0;marginBottom=0;" vertex="1" parent="1">
          <mxGeometry x="8" y="323" width="215" height="196" as="geometry" />
        </mxCell>
        <mxCell id="20" value="-name: string" style="text;strokeColor=none;fillColor=none;align=left;verticalAlign=top;spacingLeft=4;spacingRight=4;overflow=hidden;rotatable=0;points=[[0,0.5],[1,0.5]];portConstraint=eastwest;" vertex="1" parent="19">
          <mxGeometry y="27" width="215" height="27" as="geometry" />
        </mxCell>
        <mxCell id="21" value="-hand: Card[]" style="text;strokeColor=none;fillColor=none;align=left;verticalAlign=top;spacingLeft=4;spacingRight=4;overflow=hidden;rotatable=0;points=[[0,0.5],[1,0.5]];portConstraint=eastwest;" vertex="1" parent="19">
          <mxGeometry y="54" width="215" height="27" as="geometry" />
        </mxCell>
        <mxCell id="22" value="-score: number" style="text;strokeColor=none;fillColor=none;align=left;verticalAlign=top;spacingLeft=4;spacingRight=4;overflow=hidden;rotatable=0;points=[[0,0.5],[1,0.5]];portConstraint=eastwest;" vertex="1" parent="19">
          <mxGeometry y="81" width="215" height="27" as="geometry" />
        </mxCell>
        <mxCell id="23" style="line;strokeWidth=1;fillColor=none;align=left;verticalAlign=middle;spacingTop=-1;spacingLeft=3;spacingRight=3;rotatable=0;labelPosition=right;points=[];portConstraint=eastwest;strokeColor=inherit;" vertex="1" parent="19">
          <mxGeometry y="107" width="215" height="8" as="geometry" />
        </mxCell>
        <mxCell id="24" value="+getName(): string" style="text;strokeColor=none;fillColor=none;align=left;verticalAlign=top;spacingLeft=4;spacingRight=4;overflow=hidden;rotatable=0;points=[[0,0.5],[1,0.5]];portConstraint=eastwest;" vertex="1" parent="19">
          <mxGeometry y="115" width="215" height="27" as="geometry" />
        </mxCell>
        <mxCell id="25" value="+getHandValue(): number" style="text;strokeColor=none;fillColor=none;align=left;verticalAlign=top;spacingLeft=4;spacingRight=4;overflow=hidden;rotatable=0;points=[[0,0.5],[1,0.5]];portConstraint=eastwest;" vertex="1" parent="19">
          <mxGeometry y="142" width="215" height="27" as="geometry" />
        </mxCell>
        <mxCell id="26" value="+addCard(card: Card): void" style="text;strokeColor=none;fillColor=none;align=left;verticalAlign=top;spacingLeft=4;spacingRight=4;overflow=hidden;rotatable=0;points=[[0,0.5],[1,0.5]];portConstraint=eastwest;" vertex="1" parent="19">
          <mxGeometry y="169" width="215" height="27" as="geometry" />
        </mxCell>
        <mxCell id="27" value="Card" style="swimlane;fontStyle=1;align=center;verticalAlign=top;childLayout=stackLayout;horizontal=1;startSize=26.857142857142858;horizontalStack=0;resizeParent=1;resizeParentMax=0;resizeLast=0;collapsible=0;marginBottom=0;" vertex="1" parent="1">
          <mxGeometry x="291" y="569" width="167" height="196" as="geometry" />
        </mxCell>
        <mxCell id="28" value="-suit: string" style="text;strokeColor=none;fillColor=none;align=left;verticalAlign=top;spacingLeft=4;spacingRight=4;overflow=hidden;rotatable=0;points=[[0,0.5],[1,0.5]];portConstraint=eastwest;" vertex="1" parent="27">
          <mxGeometry y="27" width="167" height="27" as="geometry" />
        </mxCell>
        <mxCell id="29" value="-rank: string" style="text;strokeColor=none;fillColor=none;align=left;verticalAlign=top;spacingLeft=4;spacingRight=4;overflow=hidden;rotatable=0;points=[[0,0.5],[1,0.5]];portConstraint=eastwest;" vertex="1" parent="27">
          <mxGeometry y="54" width="167" height="27" as="geometry" />
        </mxCell>
        <mxCell id="30" value="-value: number" style="text;strokeColor=none;fillColor=none;align=left;verticalAlign=top;spacingLeft=4;spacingRight=4;overflow=hidden;rotatable=0;points=[[0,0.5],[1,0.5]];portConstraint=eastwest;" vertex="1" parent="27">
          <mxGeometry y="81" width="167" height="27" as="geometry" />
        </mxCell>
        <mxCell id="31" style="line;strokeWidth=1;fillColor=none;align=left;verticalAlign=middle;spacingTop=-1;spacingLeft=3;spacingRight=3;rotatable=0;labelPosition=right;points=[];portConstraint=eastwest;strokeColor=inherit;" vertex="1" parent="27">
          <mxGeometry y="107" width="167" height="8" as="geometry" />
        </mxCell>
        <mxCell id="32" value="+getSuit(): string" style="text;strokeColor=none;fillColor=none;align=left;verticalAlign=top;spacingLeft=4;spacingRight=4;overflow=hidden;rotatable=0;points=[[0,0.5],[1,0.5]];portConstraint=eastwest;" vertex="1" parent="27">
          <mxGeometry y="115" width="167" height="27" as="geometry" />
        </mxCell>
        <mxCell id="33" value="+getRank(): string" style="text;strokeColor=none;fillColor=none;align=left;verticalAlign=top;spacingLeft=4;spacingRight=4;overflow=hidden;rotatable=0;points=[[0,0.5],[1,0.5]];portConstraint=eastwest;" vertex="1" parent="27">
          <mxGeometry y="142" width="167" height="27" as="geometry" />
        </mxCell>
        <mxCell id="34" value="+getValue(): number" style="text;strokeColor=none;fillColor=none;align=left;verticalAlign=top;spacingLeft=4;spacingRight=4;overflow=hidden;rotatable=0;points=[[0,0.5],[1,0.5]];portConstraint=eastwest;" vertex="1" parent="27">
          <mxGeometry y="169" width="167" height="27" as="geometry" />
        </mxCell>
        <mxCell id="35" value="Deck" style="swimlane;fontStyle=1;align=center;verticalAlign=top;childLayout=stackLayout;horizontal=1;startSize=29.75;horizontalStack=0;resizeParent=1;resizeParentMax=0;resizeLast=0;collapsible=0;marginBottom=0;" vertex="1" parent="1">
          <mxGeometry x="527" y="358" width="152" height="127" as="geometry" />
        </mxCell>
        <mxCell id="36" value="-cards: Card[]" style="text;strokeColor=none;fillColor=none;align=left;verticalAlign=top;spacingLeft=4;spacingRight=4;overflow=hidden;rotatable=0;points=[[0,0.5],[1,0.5]];portConstraint=eastwest;" vertex="1" parent="35">
          <mxGeometry y="30" width="152" height="30" as="geometry" />
        </mxCell>
        <mxCell id="37" style="line;strokeWidth=1;fillColor=none;align=left;verticalAlign=middle;spacingTop=-1;spacingLeft=3;spacingRight=3;rotatable=0;labelPosition=right;points=[];portConstraint=eastwest;strokeColor=inherit;" vertex="1" parent="35">
          <mxGeometry y="60" width="152" height="8" as="geometry" />
        </mxCell>
        <mxCell id="38" value="+shuffle(): void" style="text;strokeColor=none;fillColor=none;align=left;verticalAlign=top;spacingLeft=4;spacingRight=4;overflow=hidden;rotatable=0;points=[[0,0.5],[1,0.5]];portConstraint=eastwest;" vertex="1" parent="35">
          <mxGeometry y="68" width="152" height="30" as="geometry" />
        </mxCell>
        <mxCell id="39" value="+drawCard(): Card" style="text;strokeColor=none;fillColor=none;align=left;verticalAlign=top;spacingLeft=4;spacingRight=4;overflow=hidden;rotatable=0;points=[[0,0.5],[1,0.5]];portConstraint=eastwest;" vertex="1" parent="35">
          <mxGeometry y="97" width="152" height="30" as="geometry" />
        </mxCell>
        <mxCell id="40" value="" style="curved=1;startArrow=diamondThin;startSize=14;startFill=1;endArrow=none;exitX=0.5;exitY=1;entryX=0.5;entryY=0;" edge="1" parent="1" source="2" target="13">
          <mxGeometry relative="1" as="geometry">
            <Array as="points" />
          </mxGeometry>
        </mxCell>
        <mxCell id="41" value="" style="curved=1;startArrow=diamondThin;startSize=14;startFill=1;endArrow=none;exitX=0.000029370300751879698;exitY=0.804696382961193;entryX=0.5003997093023256;entryY=0;" edge="1" parent="1" source="2" target="19">
          <mxGeometry relative="1" as="geometry">
            <Array as="points">
              <mxPoint x="116" y="298" />
            </Array>
          </mxGeometry>
        </mxCell>
        <mxCell id="42" value="" style="curved=1;startArrow=diamondThin;startSize=14;startFill=1;endArrow=none;exitX=0.9999706296992481;exitY=0.8466896273935652;entryX=0.49994860197368424;entryY=-0.003937007874015748;" edge="1" parent="1" source="2" target="35">
          <mxGeometry relative="1" as="geometry">
            <Array as="points">
              <mxPoint x="603" y="298" />
            </Array>
          </mxGeometry>
        </mxCell>
        <mxCell id="43" value="" style="curved=1;startArrow=diamondThin;startSize=14;startFill=0;endArrow=none;exitX=0.5003997093023256;exitY=1;entryX=0.002619760479041916;entryY=0.2978531632499406;" edge="1" parent="1" source="19" target="27">
          <mxGeometry relative="1" as="geometry">
            <Array as="points">
              <mxPoint x="116" y="544" />
            </Array>
          </mxGeometry>
        </mxCell>
        <mxCell id="44" value="" style="curved=1;startArrow=diamondThin;startSize=14;startFill=0;endArrow=none;exitX=0.5;exitY=1;entryX=0.5029940119760479;entryY=0;" edge="1" parent="1" source="13" target="27">
          <mxGeometry relative="1" as="geometry">
            <Array as="points" />
          </mxGeometry>
        </mxCell>
        <mxCell id="45" value="" style="curved=1;startArrow=diamondThin;startSize=14;startFill=1;endArrow=none;exitX=0.49994860197368424;exitY=0.9960629921259843;entryX=1.0033682634730539;entryY=0.2699932935515297;" edge="1" parent="1" source="35" target="27">
          <mxGeometry relative="1" as="geometry">
            <Array as="points">
              <mxPoint x="603" y="544" />
            </Array>
          </mxGeometry>
        </mxCell>
      </root>
    </mxGraphModel>
  </diagram>
</mxfile>
